<svg width="80" height="46" fill="none" xmlns="http://www.w3.org/2000/svg"><g clip-path="url(#clip0_12998_42)" fill="#B59571"><path d="M70.333 34.117c-.313 0-.549-.15-.731-.5-.157-.301-.262-.802-.262-1.403V13.736c0-.6.079-1.102.261-1.402.183-.3.419-.45.732-.45h1.75c.392 0 .732.05 1.02.1.287.1.548.25.731.55.21.3.34.701.444 1.302.105.551.157 1.352.157 2.304v13.72c0 1.253-.078 2.154-.261 2.755-.183.6-.444 1.001-.784 1.202-.34.2-.784.3-1.306.25l-1.75.05zm-5.617-33c-.314.05-.575.2-.732.5-.157.301-.235.802-.235 1.403v39.96c0 .602.078 1.052.261 1.403.157.3.418.5.732.5h7.263c1.516 0 2.822-.3 3.867-.9 1.045-.602 1.881-1.553 2.508-2.755s1.097-2.804 1.359-4.707c.287-1.903.418-4.107.418-6.66V16.14c0-2.554-.13-4.758-.418-6.66-.288-1.903-.732-3.456-1.359-4.657-.627-1.252-1.463-2.154-2.508-2.755-1.045-.6-2.325-.901-3.867-.901l-7.29-.05zm-9.51 26.39c0 1.202-.026 2.303-.053 3.255-.052.951-.156 1.753-.313 2.454-.157.7-.418 1.202-.784 1.552-.34.35-.81.55-1.41.55-.602 0-1.072-.2-1.412-.55-.365-.35-.6-.851-.783-1.552-.157-.651-.262-1.503-.314-2.454-.052-.951-.078-2.053-.052-3.255v-9.014c0-1.201.026-2.303.052-3.255.052-.951.157-1.752.314-2.453.156-.701.418-1.202.783-1.553.34-.35.81-.55 1.411-.55s1.072.2 1.411.55c.366.35.601.852.784 1.553.157.65.261 1.502.313 2.453.053.952.053 2.053.053 3.255v9.014zm5.59-12.319c0-.7-.025-1.552-.078-2.554a30.311 30.311 0 00-.34-3.204 24.161 24.161 0 00-.783-3.356c-.366-1.101-.836-2.103-1.437-3.004A7.197 7.197 0 0055.885.866c-.914-.55-2.012-.8-3.292-.85-1.28 0-2.378.3-3.292.85a7.197 7.197 0 00-2.273 2.204c-.6.901-1.071 1.903-1.437 3.004a19.47 19.47 0 00-.784 3.356 30.34 30.34 0 00-.34 3.204 50.269 50.269 0 00-.078 2.554v15.624c0 .701.026 1.552.079 2.554.052 1.002.156 2.053.34 3.205.156 1.152.443 2.253.783 3.355a13.78 13.78 0 001.437 3.055c.601.901 1.359 1.652 2.273 2.153.914.55 2.012.851 3.292.851 1.28 0 2.378-.3 3.292-.851a7.04 7.04 0 002.273-2.153c.6-.902 1.071-1.903 1.437-3.055a19.5 19.5 0 00.784-3.355c.157-1.152.287-2.203.34-3.205.052-1.002.078-1.853.078-2.554V15.188zM36.213 27.507c0 1.202-.027 2.303-.053 3.255-.052.951-.156 1.753-.313 2.454-.157.7-.418 1.202-.784 1.552-.34.35-.81.55-1.41.55-.602 0-1.072-.2-1.412-.55-.365-.35-.6-.851-.784-1.552-.156-.651-.26-1.503-.313-2.454-.052-.951-.078-2.053-.052-3.255v-9.014c0-1.201.026-2.303.052-3.255a15.07 15.07 0 01.313-2.453c.157-.701.419-1.202.784-1.553.34-.35.81-.55 1.411-.55s1.071.2 1.411.55c.366.35.6.852.784 1.553.157.65.261 1.502.313 2.453.053.952.053 2.053.053 3.255v9.014zm5.617-12.319c0-.7-.026-1.552-.078-2.554a30.34 30.34 0 00-.34-3.204 24.147 24.147 0 00-.784-3.356c-.366-1.101-.836-2.103-1.437-3.004A7.197 7.197 0 0036.917.866c-.914-.55-2.012-.8-3.292-.85-1.28 0-2.378.3-3.292.85A7.196 7.196 0 0028.06 3.07c-.6.901-1.071 1.903-1.437 3.004a19.47 19.47 0 00-.784 3.356 30.34 30.34 0 00-.34 3.204 50.255 50.255 0 00-.078 2.554v15.624c0 .701.026 1.552.079 2.554.052 1.002.156 2.053.34 3.205.156 1.152.443 2.253.783 3.355a13.777 13.777 0 001.437 3.055c.601.901 1.359 1.652 2.273 2.153.915.55 2.012.851 3.292.851 1.28 0 2.378-.3 3.292-.851a7.04 7.04 0 002.273-2.153c.601-.902 1.071-1.903 1.437-3.055a19.5 19.5 0 00.784-3.355c.157-1.152.287-2.203.34-3.205.052-1.002.078-1.853.078-2.554V15.188zM22.547 1.117c.654 0 .967.65.967 1.853v7.01c0 .601-.078 1.052-.235 1.402-.157.351-.418.501-.732.501H14.03c-.313 0-.549.15-.731.45-.183.301-.262.802-.262 1.403v29.295c0 .6-.078 1.051-.235 1.402-.157.3-.418.5-.732.5H8.23c-.314 0-.549-.15-.732-.5-.156-.35-.26-.801-.26-1.402V3.02c0-.601.077-1.102.26-1.402.183-.3.418-.451.732-.451l14.317-.05z"/><path d="M15.284 24.903c-2.43-.4-14.291 3.305-15.18-.701-1.489-6.66 10.974-2.904 12.646-2.804.836.05 1.88.35 2.482.05.418-.25.705-1.553 1.175-2.053 1.046-1.202 2.744-.551 4.207-.3.993.15 1.96.35 3.005.5-1.49.4-3.083.801-4.651 1.202-.183.05-.47-.1-.6.3 1.593.501 3.396.601 5.12.852-1.698.5-3.606.6-5.278 1.201.105.35.418.25.601.3 1.49.201 3.135.451 4.703.602-1.62.5-3.501.6-5.12 1.202.051.5.391.35.548.35 1.49.35 3.161.751 4.703 1.002-1.699.25-3.789 1.001-5.54 1.201-1.358.15-2.168-1.352-2.82-2.904z"/><path d="M11.078 25.304c1.88-.3 3.475-.551 4.206-.451.34.801.68 1.552 1.15 2.103.444.551.966.902 1.646.801.966-.1 2.038-.4 3.083-.65.757-.2 1.489-.401 2.168-.501-.68-.1-1.358-.25-2.064-.401-.81-.15-1.594-.35-2.325-.55h-.13c-.184 0-.419 0-.445-.401v-.05h.026c.888-.351 1.881-.551 2.874-.702.68-.1 1.359-.25 1.986-.4-1.176-.15-2.404-.3-3.553-.45-.288-.05-.575-.101-.863-.101h-.13c-.183 0-.392 0-.497-.3l-.026-.05h.026c.94-.351 1.96-.551 2.979-.702.679-.1 1.384-.25 2.038-.4-.34-.05-.706-.1-1.046-.15-1.306-.15-2.638-.3-3.814-.652h-.052l.026-.05c.104-.3.287-.3.444-.3h.157l1.254-.3c1.045-.25 2.116-.551 3.109-.802-.601-.1-1.202-.2-1.777-.3-.313-.05-.6-.1-.94-.15l-.784-.15c-1.254-.251-2.56-.551-3.396.45-.21.25-.392.651-.55 1.052-.208.45-.391.901-.626 1.051-.418.2-1.045.15-1.672.05-.288-.05-.575-.1-.836-.1-.288 0-.889-.15-1.672-.3-2.822-.852-8.126-1.903-10.19-.2-.731.6-1.045 1.502-.731 2.954.6 2.754 6.557 1.803 10.947 1.102zm4.206-.35c-.732-.101-2.325.15-4.206.45-4.39.7-10.373 1.652-11-1.202-.34-1.502 0-2.454.758-3.105 2.09-1.702 7.394-.65 10.242-.1.784.15 1.384.3 1.672.3.261 0 .548.05.836.1.627.1 1.228.15 1.646-.05.209-.1.392-.55.6-1 .184-.402.34-.802.575-1.053.863-1.001 2.169-.7 3.45-.45l.783.15c.287.05.627.1.94.15.68.1 1.36.25 2.065.3l.287.05-.261.101c-1.072.3-2.221.6-3.37.901l-1.255.3h-.156c-.131 0-.288 0-.392.201 1.175.35 2.482.5 3.788.651l1.306.15.262.05-.262.05c-.731.2-1.515.351-2.299.501-.993.2-2.012.35-2.926.701.078.2.261.2.418.2h.13c.288.05.576.1.863.1 1.254.201 2.56.351 3.814.502l.262.05-.262.1c-.731.2-1.489.35-2.246.5-.967.2-1.934.351-2.822.702.052.3.235.25.392.25h.13c.758.15 1.542.35 2.326.55.783.151 1.593.351 2.351.452v.1c-.758.1-1.62.35-2.482.55-1.045.25-2.116.551-3.083.652-.68.1-1.228-.25-1.672-.802-.523-.5-.888-1.252-1.202-2.053z"/></g><defs><clipPath id="clip0_12998_42"><path fill="#fff" d="M0 0h80v46H0z"/></clipPath></defs></svg>