<svg width="41" height="41" fill="none" xmlns="http://www.w3.org/2000/svg"><g clip-path="url(#clip0_12998_24)"><path d="M11.326 18.781c-.475 0-.88.097-1.112.168a.365.365 0 00-.25.294c-.052.315.273.596.59.558.143-.018.305-.03.48-.03.408 0 .705.046.705.376 0 .169-.146.266-.314.257a3.715 3.715 0 00-.191-.007c-.946 0-1.939.402-1.939 1.62 0 .958.651 1.177 1.056 1.177.487 0 .799-.2.967-.346.086-.076.145-.051.135.062-.01.108.075.2.184.2h.335c.244 0 .452-.18.486-.422l.337-2.359a1.81 1.81 0 00.019-.459c-.127-1.053-1.126-1.089-1.488-1.089zm-.54 3.497c-.339 0-.428-.259-.428-.413 0-.299.163-.659.964-.659a.22.22 0 01.219.265c-.06.32-.26.807-.755.807zm3.415-2.131c0 .546 1.302.277 1.302 1.636 0 1.452-1.407 1.389-1.653 1.389-.098 0-.188-.002-.271-.005-.551-.016-.893-.54-.81-1.085.002-.008.46.167.971.167.295 0 .677-.03.677-.38 0-.529-1.368-.401-1.368-1.654 0-1.104.82-1.427 1.629-1.427.204 0 .382.01.53.022.272.023.448.272.41.542a.529.529 0 01-.56.45 4.94 4.94 0 00-.256-.012c-.39 0-.601.085-.601.357zm2.594 1.663c-.024.149.017.352.398.352.15 0 .262.1.24.249l-.046.313a.498.498 0 01-.375.423c-.137.03-.306.054-.494.056-.509.005-.87-.281-.87-.927 0-.362.433-2.913.59-3.757.032-.175.154-.271.332-.271h.492c.169 0 .297.152.268.319l-.008.045a.234.234 0 00.23.273c.142 0 .25.125.232.265l-.065.473a.335.335 0 01-.332.29.336.336 0 00-.331.283l-.261 1.614zl4.216-.451s.144-.709.144-.997c0-.72-.358-1.598-1.558-1.598-1.1 0-1.913 1.184-1.913 2.523 0 1.545 1.02 1.911 1.888 1.911.452 0 .761-.057.945-.107a.357.357 0 00.25-.291c.065-.355-.304-.655-.66-.597-.115.019-.233.03-.348.03-.228 0-.404-.032-.54-.085-.535-.21-.022-.79.553-.79h1.24zm2.806-2.067c.195 0 .317.07.393.166.206.265-.162.583-.497.583-.335 0-.596-.302-.368-.547a.62.62 0 01.472-.202zM8.61 17.91c.564 0 .992.506.9 1.061l-.61 3.68a.554.554 0 01-.546.465h-.257a.335.335 0 01-.33-.387c.063-.402-.51-.548-.646-.166l-.111.31a.365.365 0 01-.344.242H6.51a.347.347 0 01-.347-.338c-.01-.42-.618-.463-.689-.049l-.015.091a.356.356 0 01-.35.297h-.14a.52.52 0 01-.513-.607l.65-3.871a.872.872 0 01.86-.728h.393c.257 0 .468.207.472.465.01.53.75.645.92.142l.086-.254a.519.519 0 01.492-.353h.282zm14.61-1.449c.158.368-.123.764-.523.764H18.74c-.41 0-.752-.314-.567-.68.091-.18.343-.42.545-.42h3.98c.227 0 .433.128.522.336zm-1.364-2.296c.29.368.012.881-.457.881h-1.372c-.451 0-.728-.492-.468-.861a.566.566 0 01.463-.238H21.4c.178 0 .347.078.456.218zM20.67 28.109a.01.01 0 01-.012 0 8.23 8.23 0 01-.339-.325c-.298-.302-.069-.792.356-.792.424 0 .648.486.348.785a9.817 9.817 0 01-.331.314h-.002v.002l-.02.015zm1.99-2.453a.568.568 0 01-.493.278h-2.99a.576.576 0 01-.497-.279c-.22-.372.06-.82.492-.82h2.992c.431 0 .714.448.497.82zm.92-6.822c.108-.001.165.106.12.204-.058.128-.114.27-.17.458-.095.32-.506.547-.68.832-.25.409-.355 1.288-.524 2.335a.55.55 0 01-.545.461.557.557 0 01-.55-.646l.51-3.168a.503.503 0 01.496-.422h.486c.054 0 .096.048.087.102-.015.098.162.172.234.103.144-.139.329-.26.536-.26zm2.235 3.3h.043c.377-.02.775.254.714.626a.44.44 0 01-.344.365c-.2.04-.462.083-.661.083-1.305 0-1.967-.9-1.967-2.263 0-2.056 1.228-3.151 2.489-3.151.3 0 .624.074.864.144a.447.447 0 01.308.506c-.055.358-.488.551-.845.488a1.607 1.607 0 00-.277-.025c-.744 0-1.411.71-1.411 2 0 .636.31 1.228 1.087 1.228zm10.67.379a.335.335 0 00-.169.289c0 .057.015.112.045.164.029.052.07.094.122.124a.333.333 0 00.496-.288.33.33 0 00-.331-.332.34.34 0 00-.163.043zm.403.15a.274.274 0 01.001.276.28.28 0 01-.24.14.28.28 0 01-.277-.279c0-.047.012-.093.038-.138a.277.277 0 01.477 0zm-4.438-1.259c0 .896.446 1.774 1.355 1.774.355 0 .625-.135.797-.258.069-.05.195.013.185.097a.084.084 0 00.083.094h.511a.537.537 0 00.53-.451l.662-4.118a.541.541 0 00-.536-.627h-.074a.454.454 0 00-.447.382c-.064.399-.685.575-1.086.522a1.09 1.09 0 00-.144-.01c-1.002.001-1.836 1.209-1.836 2.595zm2.62-.636c0 .577-.286 1.348-.878 1.348-.394 0-.578-.33-.578-.848 0-.848.38-1.407.86-1.407.393.001.595.27.595.907zm1.777 5.474c-.005-.005-.002-.024.005-.026a.102.102 0 00.04-.025.095.095 0 00.011-.12.086.086 0 00-.046-.036.269.269 0 00-.09-.01.123.123 0 00-.123.123v.206a.029.029 0 00.058 0v-.09c0-.019.015-.034.033-.034.02 0 .037.005.046.013.015.012.036.04.06.083l.023.041a.03.03 0 10.051-.03l-.014-.025a.515.515 0 00-.054-.07zm-.075-.06h-.017a.054.054 0 010-.107h.012c.028 0 .046.002.057.006.011.004.018.01.025.018a.049.049 0 01.008.028.05.05 0 01-.017.04c-.012.01-.036.015-.068.015zM39.637 7.54H1.697c-.57 0-1.03.461-1.03 1.03v23.863c0 .569.46 1.03 1.03 1.03h37.94c.57 0 1.03-.461 1.03-1.03V8.57c0-.569-.46-1.03-1.03-1.03zm-2.562 18.824a.308.308 0 01-.122.124.336.336 0 01-.33 0 .331.331 0 11.453-.124zm.742-5.862c.002 5.67-4.592 10.267-10.262 10.268-4.282.001-9.49-.003-13.772-.003-5.667 0-10.266-4.598-10.266-10.265 0-5.645 4.563-10.23 10.2-10.267h.066c4.283 0 9.484 0 13.767-.002 5.668-.002 10.265 4.591 10.269 10.259l-.002.01zm-1.19 2.127a.125.125 0 00-.125.124v.204a.029.029 0 00.058 0v-.09c0-.018.015-.033.034-.033.02 0 .036.004.046.012.015.013.035.04.061.084l.022.04a.03.03 0 10.052-.03l-.016-.024a.452.452 0 00-.052-.07c-.006-.006-.003-.024.004-.026a.103.103 0 00.067-.094.092.092 0 00-.017-.052.1.1 0 00-.044-.035.274.274 0 00-.09-.01zm.081.073c.007.009.01.017.01.029a.052.052 0 01-.018.038c-.013.011-.035.015-.068.015h-.017a.054.054 0 010-.107h.04c.02.002.043.007.053.025zm-7.664-3.92c-.476 0-.88.097-1.113.168a.365.365 0 00-.249.294c-.053.315.272.596.589.558.143-.018.305-.03.48-.03.408 0 .706.046.706.376 0 .17-.148.266-.317.257a3.713 3.713 0 00-.19-.007c-.946 0-1.938.402-1.938 1.62 0 .958.652 1.177 1.055 1.177.487 0 .8-.2.968-.347.086-.075.145-.05.135.063-.01.108.075.2.184.2h.334c.244 0 .452-.18.486-.421l.37-2.588c.001-1.279-1.113-1.32-1.5-1.32zm-.538 3.497c-.34 0-.428-.259-.428-.413 0-.299.162-.659.963-.659a.22.22 0 01.219.264c-.06.32-.26.808-.754.808zm4.2-2.781c-.095.32-.506.545-.68.83-.25.408-.355 1.288-.524 2.335a.55.55 0 01-.545.461.557.557 0 01-.55-.646l.51-3.167a.503.503 0 01.496-.423h.486c.054 0 .096.049.087.103-.015.098.162.172.234.102.145-.138.33-.259.538-.259.107 0 .163.107.12.205-.06.128-.116.27-.172.459z" fill="#fff"/></g><defs><clipPath id="clip0_12998_24"><path fill="#fff" transform="translate(.667 .5)" d="M0 0h40v40H0z"/></clipPath></defs></svg>