<svg width="41" height="27" fill="none" xmlns="http://www.w3.org/2000/svg"><g clip-path="url(#clip0_12998_15)"><path d="M2.718.68h35.897a2.05 2.05 0 012.051 2.05v21.54a2.05 2.05 0 01-2.05 2.05H2.717a2.05 2.05 0 01-2.051-2.05V2.73A2.05 2.05 0 012.717.68z" fill="#fff"/><path d="M28.569 13.013v5.538h3.077V15.27h3.487a3.414 3.414 0 003.185-2.256h-9.75zm-.41-4.564c.18 2.261 2.323 4.051 4.938 4.051h5.349a3.41 3.41 0 00-3.323-4.051h-6.964zm-4.554 3.995v-.006.006a.184.184 0 01.164-.098c.103 0 .18.082.185.18V18.5h3.076V8.449h-3.076c-.39.015-.831.297-.995.651l-2.446 5.251a.315.315 0 01-.026.062.206.206 0 01-.374-.118V8.449h-3.077V18.5h3.077c.384-.02.815-.303.98-.651l2.512-5.39c-.005-.005 0-.01 0-.015zm-11.487.174l-1.8 5.882H8.102l-1.795-5.887a.2.2 0 00-.2-.164.2.2 0 00-.2.2v5.846H2.831V8.444h3.425c.564 0 1.16.44 1.323.98l1.498 4.896c.077.247.195.242.272 0l1.497-4.897c.164-.543.759-.98 1.323-.98h3.425v10.052h-3.076v-5.851a.2.2 0 00-.2-.2.209.209 0 00-.2.174z" fill="#333"/></g><defs><clipPath id="clip0_12998_15"><path fill="#fff" transform="translate(.667 .68)" d="M0 0h40v25.641H0z"/></clipPath></defs></svg>