<svg width="41" height="41" fill="none" xmlns="http://www.w3.org/2000/svg"><g clip-path="url(#clip0_12998_13)"><path d="M38 33.833H3.333a2.667 2.667 0 01-2.666-2.666V9.833a2.667 2.667 0 012.666-2.666H38a2.667 2.667 0 012.666 2.666v21.334A2.667 2.667 0 0138 33.833zM20.489 23.57l-.4 2.5a7.601 7.601 0 003.226.59h-.012a5.742 5.742 0 003.639-1.037l-.019.012a3.428 3.428 0 001.398-2.76v-.017c0-1.221-.818-2.237-2.43-3.021a8.506 8.506 0 01-1.258-.747l.026.018a.838.838 0 01-.381-.658v-.002a.817.817 0 01.42-.667l.005-.002a2.17 2.17 0 011.231-.286h-.006.174c.716 0 1.395.154 2.007.43l-.031-.012.26.139.398-2.412a6.934 6.934 0 00-2.53-.47h-.054.003a5.63 5.63 0 00-3.508 1.035l.018-.01a3.246 3.246 0 00-1.374 2.65v.006c-.011 1.175.835 2.191 2.518 3.022a4.79 4.79 0 011.17.718l-.007-.007c.194.165.32.406.33.676v.004a.871.871 0 01-.515.796l-.006.002a2.472 2.472 0 01-1.149.278h-.051.002-.083a6.277 6.277 0 01-2.663-.59l.038.018-.38-.192-.006-.004zm11.25 1.268h3.683c.06.254.175.81.348 1.666h2.674l-2.326-11.145h-2.223a1.482 1.482 0 00-1.508.928l-.003.01-4.266 10.207h3.022l.607-1.665-.008-.001zm-14.527-9.48l-1.807 11.146h2.883l1.805-11.145h-2.88zM6.135 17.633l2.345 8.854h3.038l4.527-11.128h-3.05l-2.816 7.604-.296-1.545-1.004-5.121a1.157 1.157 0 00-1.308-.938l.007-.001H2.925l-.034.225c3.582.91 5.935 2.874 6.996 5.834a6.378 6.378 0 00-1.474-2.25 6.783 6.783 0 00-2.23-1.52l-.045-.017-.003.003zm28.82 4.912h-2.4c.162-.428.544-1.465 1.146-3.11l.051-.157c.047-.116.104-.267.178-.451.073-.185.122-.336.155-.451l.21.954.658 3.211.001.005z" fill="#fff"/></g><defs><clipPath id="clip0_12998_13"><path fill="#fff" transform="translate(.667 .5)" d="M0 0h40v40H0z"/></clipPath></defs></svg>