<svg width="26" height="26" fill="none" xmlns="http://www.w3.org/2000/svg"><path d="M26 11.245v.716a1.08 1.08 0 01-1.083 1.076h-.361l-1.18 8.19a2.162 2.162 0 01-2.144 1.847H4.768a2.162 2.162 0 01-2.145-1.847l-1.179-8.19h-.36A1.08 1.08 0 010 11.96v-.716a1.08 1.08 0 011.083-1.076h3.04l4.82-6.578a1.451 1.451 0 012.018-.317c.645.466.787 1.363.318 2.003L7.695 10.17h10.61L14.72 5.277a1.427 1.427 0 01.318-2.003 1.451 1.451 0 012.018.317l4.82 6.578h3.04A1.08 1.08 0 0126 11.245zM14.083 19.13v-5.019A1.08 1.08 0 0013 13.037a1.08 1.08 0 00-1.083 1.075v5.019A1.08 1.08 0 0013 20.206a1.08 1.08 0 001.083-1.075zm5.056 0v-5.019a1.08 1.08 0 00-1.083-1.075 1.08 1.08 0 00-1.084 1.075v5.019a1.08 1.08 0 001.084 1.075 1.08 1.08 0 001.083-1.075zm-10.111 0v-5.019a1.08 1.08 0 00-1.084-1.075 1.08 1.08 0 00-1.083 1.075v5.019a1.08 1.08 0 001.083 1.075 1.08 1.08 0 001.084-1.075z" fill="#333"/></svg>