<svg width="40" height="40" fill="none" xmlns="http://www.w3.org/2000/svg"><path d="M36.614 11.475c.284.766-.587 2.553-2.611 5.361-.284.383-.648.894-1.093 1.532-.931 1.191-1.458 1.979-1.58 2.362-.202.51-.12 1 .244 1.468.202.255.668.765 1.396 1.531h.061v.064c1.66 1.574 2.774 2.915 3.34 4.021l.122.255.121.479v.606l-.425.479-1.032.223-4.434.128c-.283.043-.617 0-1.002-.128-.384-.127-.678-.255-.88-.383l-.365-.255c-.364-.255-.769-.638-1.214-1.149-.446-.51-.84-.978-1.185-1.404a6.229 6.229 0 00-1.062-1.053c-.365-.276-.689-.372-.972-.287-.04 0-.091.021-.152.064-.06.042-.162.138-.304.287a2.09 2.09 0 00-.364.542c-.101.213-.192.522-.273.926a7.4 7.4 0 00-.122 1.436c0 .17-.02.33-.06.479a2.284 2.284 0 01-.122.35l-.06.065c-.244.255-.567.382-.972.382H19.67c-.85.085-1.71 0-2.581-.255-.87-.255-1.63-.585-2.277-.99A22.105 22.105 0 0113.05 27.4c-.526-.404-.93-.755-1.214-1.053l-.425-.447c-.122-.085-.284-.255-.486-.51a76.645 76.645 0 01-1.245-1.66 41.424 41.424 0 01-1.853-2.744c-.607-.979-1.315-2.266-2.125-3.861a63.666 63.666 0 01-2.247-4.947c-.081-.213-.122-.383-.122-.51 0-.128.02-.235.061-.32l.06-.063c.163-.256.487-.383.972-.383h4.798c.122 0 .243.031.365.095l.303.16.061.064c.203.127.344.319.425.574.243.596.516 1.223.82 1.883.304.66.537 1.16.698 1.5l.243.51c.365.724.699 1.351 1.003 1.883.303.532.576.947.82 1.245.242.298.485.532.728.702.243.17.446.255.607.255.162 0 .324-.021.486-.064l.061-.095.213-.415.242-.83.152-1.468v-2.298c-.04-.468-.1-.904-.182-1.308-.08-.404-.162-.691-.243-.862l-.06-.191c-.284-.426-.79-.702-1.519-.83-.121 0-.08-.149.122-.447a2.57 2.57 0 01.668-.51c.607-.34 1.984-.49 4.13-.447.93 0 1.72.085 2.368.255.203.043.385.117.547.224a.972.972 0 01.364.446c.081.192.142.383.182.575.04.191.061.468.061.83v.989c-.04.34-.06.766-.06 1.276v1.532c0 .128-.01.383-.031.766-.02.383-.03.68-.03.894 0 .212.02.457.06.734.04.276.112.51.213.702.101.191.233.33.395.415.08.042.172.074.273.095.101.022.253-.042.455-.191.203-.15.425-.362.668-.638.243-.277.547-.692.911-1.245.365-.553.75-1.191 1.154-1.915a34.88 34.88 0 001.883-4.148c.04-.085.091-.181.152-.287a.548.548 0 01.212-.224h.061l.06-.064.244-.064h.364l4.98-.063c.445-.043.82-.022 1.124.063.303.086.475.192.516.32l.121.191z" fill="#B59571"/></svg>