<svg width="40" height="40" fill="none" xmlns="http://www.w3.org/2000/svg"><path d="M35.969 12.373a3.869 3.869 0 00-1.064-1.764 4.235 4.235 0 00-1.858-1.03c-2.608-.687-13.055-.687-13.055-.687-4.356-.05-8.71.168-13.039.652A4.388 4.388 0 005.095 10.6a4.022 4.022 0 00-1.08 1.771 40.395 40.395 0 00-.678 7.63 40.32 40.32 0 00.678 7.628c.19.665.56 1.272 1.076 1.762.515.49 1.157.845 1.862 1.032 2.643.686 13.039.686 13.039.686 4.36.05 8.72-.169 13.055-.653a4.235 4.235 0 001.858-1.03 3.86 3.86 0 001.062-1.764c.48-2.514.712-5.07.696-7.63a36.899 36.899 0 00-.694-7.66zM16.67 24.755v-9.508l8.693 4.755-8.693 4.753z" fill="#B59571"/></svg>